<svg xmlns="http://www.w3.org/2000/svg" id="graph_svg" class="" viewBox="0 0 610 576"><circle id="node_0" cx="16" cy="16" r="16"></circle><circle id="node_1" cx="50" cy="16" r="16"></circle><circle id="node_2" cx="84" cy="16" r="16"></circle><circle id="node_3" cx="118" cy="16" r="16"></circle><circle id="node_4" cx="152" cy="16" r="16"></circle><circle id="node_5" cx="186" cy="16" r="16"></circle><circle id="node_6" cx="220" cy="16" r="16"></circle><circle id="node_7" cx="254" cy="16" r="16"></circle><circle id="node_8" cx="288" cy="16" r="16"></circle><circle id="node_9" cx="322" cy="16" r="16"></circle><circle id="node_10" cx="356" cy="16" r="16"></circle><circle id="node_11" cx="390" cy="16" r="16"></circle><circle id="node_12" cx="424" cy="16" r="16"></circle><circle id="node_13" cx="458" cy="16" r="16"></circle><circle id="node_14" cx="492" cy="16" r="16"></circle><circle id="node_15" cx="526" cy="16" r="16"></circle><circle id="node_16" cx="560" cy="16" r="16"></circle><circle id="node_17" cx="594" cy="16" r="16"></circle><circle id="node_18" cx="16" cy="50" r="16"></circle><circle id="node_19" cx="50" cy="50" r="16"></circle><circle id="node_20" cx="84" cy="50" r="16"></circle><circle id="node_21" cx="118" cy="50" r="16"></circle><circle id="node_22" cx="152" cy="50" r="16"></circle><circle id="node_23" cx="186" cy="50" r="16"></circle><circle id="node_24" cx="220" cy="50" r="16"></circle><circle id="node_25" cx="254" cy="50" r="16"></circle><circle id="node_26" cx="288" cy="50" r="16"></circle><circle id="node_27" cx="322" cy="50" r="16"></circle><circle id="node_28" cx="356" cy="50" r="16"></circle><circle id="node_29" cx="390" cy="50" r="16"></circle><circle id="node_30" cx="424" cy="50" r="16"></circle><circle id="node_31" cx="458" cy="50" r="16"></circle><circle id="node_32" cx="492" cy="50" r="16"></circle><circle id="node_33" cx="526" cy="50" r="16"></circle><circle id="node_34" cx="560" cy="50" r="16"></circle><circle id="node_35" cx="594" cy="50" r="16"></circle><circle id="node_36" cx="16" cy="84" r="16"></circle><circle id="node_37" cx="50" cy="84" r="16"></circle><circle id="node_38" cx="84" cy="84" r="16"></circle><circle id="node_39" cx="118" cy="84" r="16"></circle><circle id="node_40" cx="152" cy="84" r="16"></circle><circle id="node_41" cx="186" cy="84" r="16"></circle><circle id="node_42" cx="220" cy="84" r="16"></circle><circle id="node_43" cx="254" cy="84" r="16"></circle><circle id="node_44" cx="288" cy="84" r="16"></circle><circle id="node_45" cx="322" cy="84" r="16"></circle><circle id="node_46" cx="356" cy="84" r="16"></circle><circle id="node_47" cx="390" cy="84" r="16"></circle><circle id="node_48" cx="424" cy="84" r="16"></circle><circle id="node_49" cx="458" cy="84" r="16"></circle><circle id="node_50" cx="492" cy="84" r="16"></circle><circle id="node_51" cx="526" cy="84" r="16"></circle><circle id="node_52" cx="560" cy="84" r="16"></circle><circle id="node_53" cx="594" cy="84" r="16"></circle><circle id="node_54" cx="16" cy="118" r="16"></circle><circle id="node_55" cx="50" cy="118" r="16"></circle><circle id="node_56" cx="84" cy="118" r="16"></circle><circle id="node_57" cx="118" cy="118" r="16"></circle><circle id="node_58" cx="152" cy="118" r="16"></circle><circle id="node_59" cx="186" cy="118" r="16"></circle><circle id="node_60" cx="220" cy="118" r="16"></circle><circle id="node_61" cx="254" cy="118" r="16"></circle><circle id="node_62" cx="288" cy="118" r="16"></circle><circle id="node_63" cx="322" cy="118" r="16"></circle><circle id="node_64" cx="356" cy="118" r="16"></circle><circle id="node_65" cx="390" cy="118" r="16"></circle><circle id="node_66" cx="424" cy="118" r="16"></circle><circle id="node_67" cx="458" cy="118" r="16"></circle><circle id="node_68" cx="492" cy="118" r="16"></circle><circle id="node_69" cx="526" cy="118" r="16"></circle><circle id="node_70" cx="560" cy="118" r="16"></circle><circle id="node_71" cx="594" cy="118" r="16"></circle><circle id="node_72" cx="16" cy="152" r="16"></circle><circle id="node_73" cx="50" cy="152" r="16"></circle><circle id="node_74" cx="84" cy="152" r="16"></circle><circle id="node_75" cx="118" cy="152" r="16"></circle><circle id="node_76" cx="152" cy="152" r="16"></circle><circle id="node_77" cx="186" cy="152" r="16"></circle><circle id="node_78" cx="220" cy="152" r="16"></circle><circle id="node_79" cx="254" cy="152" r="16"></circle><circle id="node_80" cx="288" cy="152" r="16"></circle><circle id="node_81" cx="322" cy="152" r="16"></circle><circle id="node_82" cx="356" cy="152" r="16"></circle><circle id="node_83" cx="390" cy="152" r="16"></circle><circle id="node_84" cx="424" cy="152" r="16"></circle><circle id="node_85" cx="458" cy="152" r="16"></circle><circle id="node_86" cx="492" cy="152" r="16"></circle><circle id="node_87" cx="526" cy="152" r="16"></circle><circle id="node_88" cx="560" cy="152" r="16"></circle><circle id="node_89" cx="594" cy="152" r="16"></circle><circle id="node_90" cx="16" cy="186" r="16"></circle><circle id="node_91" cx="50" cy="186" r="16"></circle><circle id="node_92" cx="84" cy="186" r="16"></circle><circle id="node_93" cx="118" cy="186" r="16"></circle><circle id="node_94" cx="152" cy="186" r="16"></circle><circle id="node_95" cx="186" cy="186" r="16"></circle><circle id="node_96" cx="220" cy="186" r="16"></circle><circle id="node_97" cx="254" cy="186" r="16"></circle><circle id="node_98" cx="288" cy="186" r="16"></circle><circle id="node_99" cx="322" cy="186" r="16"></circle><circle id="node_100" cx="356" cy="186" r="16"></circle><circle id="node_101" cx="390" cy="186" r="16"></circle><circle id="node_102" cx="424" cy="186" r="16"></circle><circle id="node_103" cx="458" cy="186" r="16"></circle><circle id="node_104" cx="492" cy="186" r="16"></circle><circle id="node_105" cx="526" cy="186" r="16"></circle><circle id="node_106" cx="560" cy="186" r="16"></circle><circle id="node_107" cx="594" cy="186" r="16"></circle><circle id="node_108" cx="16" cy="220" r="16"></circle><circle id="node_109" cx="50" cy="220" r="16"></circle><circle id="node_110" cx="84" cy="220" r="16"></circle><circle id="node_111" cx="118" cy="220" r="16"></circle><circle id="node_112" cx="152" cy="220" r="16"></circle><circle id="node_113" cx="186" cy="220" r="16"></circle><circle id="node_114" cx="220" cy="220" r="16"></circle><circle id="node_115" cx="254" cy="220" r="16"></circle><circle id="node_116" cx="288" cy="220" r="16"></circle><circle id="node_117" cx="322" cy="220" r="16"></circle><circle id="node_118" cx="356" cy="220" r="16"></circle><circle id="node_119" cx="390" cy="220" r="16"></circle><circle id="node_120" cx="424" cy="220" r="16"></circle><circle id="node_121" cx="458" cy="220" r="16"></circle><circle id="node_122" cx="492" cy="220" r="16"></circle><circle id="node_123" cx="526" cy="220" r="16"></circle><circle id="node_124" cx="560" cy="220" r="16"></circle><circle id="node_125" cx="594" cy="220" r="16"></circle><circle id="node_126" cx="16" cy="254" r="16"></circle><circle id="node_127" cx="50" cy="254" r="16"></circle><circle id="node_128" cx="84" cy="254" r="16"></circle><circle id="node_129" cx="118" cy="254" r="16"></circle><circle id="node_130" cx="152" cy="254" r="16"></circle><circle id="node_131" cx="186" cy="254" r="16"></circle><circle id="node_132" cx="220" cy="254" r="16"></circle><circle id="node_133" cx="254" cy="254" r="16"></circle><circle id="node_134" cx="288" cy="254" r="16"></circle><circle id="node_135" cx="322" cy="254" r="16"></circle><circle id="node_136" cx="356" cy="254" r="16"></circle><circle id="node_137" cx="390" cy="254" r="16"></circle><circle id="node_138" cx="424" cy="254" r="16"></circle><circle id="node_139" cx="458" cy="254" r="16"></circle><circle id="node_140" cx="492" cy="254" r="16"></circle><circle id="node_141" cx="526" cy="254" r="16"></circle><circle id="node_142" cx="560" cy="254" r="16"></circle><circle id="node_143" cx="594" cy="254" r="16"></circle><circle id="node_144" cx="16" cy="288" r="16"></circle><circle id="node_145" cx="50" cy="288" r="16"></circle><circle id="node_146" cx="84" cy="288" r="16"></circle><circle id="node_147" cx="118" cy="288" r="16"></circle><circle id="node_148" cx="152" cy="288" r="16"></circle><circle id="node_149" cx="186" cy="288" r="16"></circle><circle id="node_150" cx="220" cy="288" r="16"></circle><circle id="node_151" cx="254" cy="288" r="16"></circle><circle id="node_152" cx="288" cy="288" r="16"></circle><circle id="node_153" cx="322" cy="288" r="16"></circle><circle id="node_154" cx="356" cy="288" r="16"></circle><circle id="node_155" cx="390" cy="288" r="16"></circle><circle id="node_156" cx="424" cy="288" r="16"></circle><circle id="node_157" cx="458" cy="288" r="16"></circle><circle id="node_158" cx="492" cy="288" r="16"></circle><circle id="node_159" cx="526" cy="288" r="16"></circle><circle id="node_160" cx="560" cy="288" r="16"></circle><circle id="node_161" cx="594" cy="288" r="16"></circle><circle id="node_162" cx="16" cy="322" r="16"></circle><circle id="node_163" cx="50" cy="322" r="16"></circle><circle id="node_164" cx="84" cy="322" r="16"></circle><circle id="node_165" cx="118" cy="322" r="16"></circle><circle id="node_166" cx="152" cy="322" r="16"></circle><circle id="node_167" cx="186" cy="322" r="16"></circle><circle id="node_168" cx="220" cy="322" r="16"></circle><circle id="node_169" cx="254" cy="322" r="16"></circle><circle id="node_170" cx="288" cy="322" r="16"></circle><circle id="node_171" cx="322" cy="322" r="16"></circle><circle id="node_172" cx="356" cy="322" r="16"></circle><circle id="node_173" cx="390" cy="322" r="16"></circle><circle id="node_174" cx="424" cy="322" r="16"></circle><circle id="node_175" cx="458" cy="322" r="16"></circle><circle id="node_176" cx="492" cy="322" r="16"></circle><circle id="node_177" cx="526" cy="322" r="16"></circle><circle id="node_178" cx="560" cy="322" r="16"></circle><circle id="node_179" cx="594" cy="322" r="16"></circle><circle id="node_180" cx="16" cy="356" r="16"></circle><circle id="node_181" cx="50" cy="356" r="16"></circle><circle id="node_182" cx="84" cy="356" r="16"></circle><circle id="node_183" cx="118" cy="356" r="16"></circle><circle id="node_184" cx="152" cy="356" r="16"></circle><circle id="node_185" cx="186" cy="356" r="16"></circle><circle id="node_186" cx="220" cy="356" r="16"></circle><circle id="node_187" cx="254" cy="356" r="16"></circle><circle id="node_188" cx="288" cy="356" r="16"></circle><circle id="node_189" cx="322" cy="356" r="16"></circle><circle id="node_190" cx="356" cy="356" r="16"></circle><circle id="node_191" cx="390" cy="356" r="16"></circle><circle id="node_192" cx="424" cy="356" r="16"></circle><circle id="node_193" cx="458" cy="356" r="16"></circle><circle id="node_194" cx="492" cy="356" r="16"></circle><circle id="node_195" cx="526" cy="356" r="16"></circle><circle id="node_196" cx="560" cy="356" r="16"></circle><circle id="node_197" cx="594" cy="356" r="16"></circle><circle id="node_198" cx="16" cy="390" r="16"></circle><circle id="node_199" cx="50" cy="390" r="16"></circle><circle id="node_200" cx="84" cy="390" r="16"></circle><circle id="node_201" cx="118" cy="390" r="16"></circle><circle id="node_202" cx="152" cy="390" r="16"></circle><circle id="node_203" cx="186" cy="390" r="16"></circle><circle id="node_204" cx="220" cy="390" r="16"></circle><circle id="node_205" cx="254" cy="390" r="16"></circle><circle id="node_206" cx="288" cy="390" r="16"></circle><circle id="node_207" cx="322" cy="390" r="16"></circle><circle id="node_208" cx="356" cy="390" r="16"></circle><circle id="node_209" cx="390" cy="390" r="16"></circle><circle id="node_210" cx="424" cy="390" r="16"></circle><circle id="node_211" cx="458" cy="390" r="16"></circle><circle id="node_212" cx="492" cy="390" r="16"></circle><circle id="node_213" cx="526" cy="390" r="16"></circle><circle id="node_214" cx="560" cy="390" r="16"></circle><circle id="node_215" cx="594" cy="390" r="16"></circle><circle id="node_216" cx="16" cy="424" r="16"></circle><circle id="node_217" cx="50" cy="424" r="16"></circle><circle id="node_218" cx="84" cy="424" r="16"></circle><circle id="node_219" cx="118" cy="424" r="16"></circle><circle id="node_220" cx="152" cy="424" r="16"></circle><circle id="node_221" cx="186" cy="424" r="16"></circle><circle id="node_222" cx="220" cy="424" r="16"></circle><circle id="node_223" cx="254" cy="424" r="16"></circle><circle id="node_224" cx="288" cy="424" r="16"></circle><circle id="node_225" cx="322" cy="424" r="16"></circle><circle id="node_226" cx="356" cy="424" r="16"></circle><circle id="node_227" cx="390" cy="424" r="16"></circle><circle id="node_228" cx="424" cy="424" r="16"></circle><circle id="node_229" cx="458" cy="424" r="16"></circle><circle id="node_230" cx="492" cy="424" r="16"></circle><circle id="node_231" cx="526" cy="424" r="16"></circle><circle id="node_232" cx="560" cy="424" r="16"></circle><circle id="node_233" cx="594" cy="424" r="16"></circle><circle id="node_234" cx="16" cy="458" r="16"></circle><circle id="node_235" cx="50" cy="458" r="16"></circle><circle id="node_236" cx="84" cy="458" r="16"></circle><circle id="node_237" cx="118" cy="458" r="16"></circle><circle id="node_238" cx="152" cy="458" r="16"></circle><circle id="node_239" cx="186" cy="458" r="16"></circle><circle id="node_240" cx="220" cy="458" r="16"></circle><circle id="node_241" cx="254" cy="458" r="16"></circle><circle id="node_242" cx="288" cy="458" r="16"></circle><circle id="node_243" cx="322" cy="458" r="16"></circle><circle id="node_244" cx="356" cy="458" r="16"></circle><circle id="node_245" cx="390" cy="458" r="16"></circle><circle id="node_246" cx="424" cy="458" r="16"></circle><circle id="node_247" cx="458" cy="458" r="16"></circle><circle id="node_248" cx="492" cy="458" r="16"></circle><circle id="node_249" cx="526" cy="458" r="16"></circle><circle id="node_250" cx="560" cy="458" r="16"></circle><circle id="node_251" cx="594" cy="458" r="16"></circle><circle id="node_252" cx="16" cy="492" r="16"></circle><circle id="node_253" cx="50" cy="492" r="16"></circle><circle id="node_254" cx="84" cy="492" r="16"></circle><circle id="node_255" cx="118" cy="492" r="16"></circle><circle id="node_256" cx="152" cy="492" r="16"></circle><circle id="node_257" cx="186" cy="492" r="16"></circle><circle id="node_258" cx="220" cy="492" r="16"></circle><circle id="node_259" cx="254" cy="492" r="16"></circle><circle id="node_260" cx="288" cy="492" r="16"></circle><circle id="node_261" cx="322" cy="492" r="16"></circle><circle id="node_262" cx="356" cy="492" r="16"></circle><circle id="node_263" cx="390" cy="492" r="16"></circle><circle id="node_264" cx="424" cy="492" r="16"></circle><circle id="node_265" cx="458" cy="492" r="16"></circle><circle id="node_266" cx="492" cy="492" r="16"></circle><circle id="node_267" cx="526" cy="492" r="16"></circle><circle id="node_268" cx="560" cy="492" r="16"></circle><circle id="node_269" cx="594" cy="492" r="16"></circle><circle id="node_270" cx="16" cy="526" r="16"></circle><circle id="node_271" cx="50" cy="526" r="16"></circle><circle id="node_272" cx="84" cy="526" r="16"></circle><circle id="node_273" cx="118" cy="526" r="16"></circle><circle id="node_274" cx="152" cy="526" r="16"></circle><circle id="node_275" cx="186" cy="526" r="16"></circle><circle id="node_276" cx="220" cy="526" r="16"></circle><circle id="node_277" cx="254" cy="526" r="16"></circle><circle id="node_278" cx="288" cy="526" r="16"></circle><circle id="node_279" cx="322" cy="526" r="16"></circle><circle id="node_280" cx="356" cy="526" r="16"></circle><circle id="node_281" cx="390" cy="526" r="16"></circle><circle id="node_282" cx="424" cy="526" r="16"></circle><circle id="node_283" cx="458" cy="526" r="16"></circle><circle id="node_284" cx="492" cy="526" r="16"></circle><circle id="node_285" cx="526" cy="526" r="16"></circle><circle id="node_286" cx="560" cy="526" r="16"></circle><circle id="node_287" cx="594" cy="526" r="16"></circle><circle id="node_288" cx="16" cy="560" r="16"></circle><circle id="node_289" cx="50" cy="560" r="16"></circle><circle id="node_290" cx="84" cy="560" r="16"></circle><circle id="node_291" cx="118" cy="560" r="16"></circle><circle id="node_292" cx="152" cy="560" r="16"></circle><circle id="node_293" cx="186" cy="560" r="16"></circle></svg>