<svg id="svg_symbols" aria-hidden="true">

  <symbol id="icon_logo" viewBox="0 0 24 24">
    <circle cx="12" cy="3" r="2" stroke="none" fill="var(--c_highlight_in)"></circle>
    <line x1="12" y1="7" x2="12" y2="12"></line>
    <polyline points="12 15 12 22 22 2"></polyline>
  </symbol>

  <symbol id="icon_close" viewBox="0 0 24 24">
    <line x1="18" y1="6" x2="6" y2="18"></line>
    <line x1="6" y1="6" x2="18" y2="18"></line>
  </symbol>

  <symbol id="icon_link" viewBox="0 0 24 24">
    <g fill="none" fill-rule="evenodd">
    <path d="M18 14v5a2 2 0 0 1-2 2H5a2 2 0 0 1-2-2V8c0-1.1.9-2 2-2h5M15 3h6v6M10 14L20.2 3.8"/>
    </g>
  </symbol>

  <symbol id="icon_trash" viewBox="0 0 24 24">
    <rect x="3" y="3" width="18" height="18" rx="2" ry="2"></rect>
    <path d="M3 3h18v18H3zM15 9l-6 6m0-6l6 6"/>
  </symbol>

  <symbol id="icon_load" viewBox="0 0 24 24">
      <path d="M1 12s4-8 11-8 11 8 11 8-4 8-11 8-11-8-11-8z"></path>
      <circle cx="12" cy="12" r="3"></circle>
  </symbol>

  <symbol id="icon_tools" viewBox="0 0 24 24">
    <line x1="4" y1="21" x2="4" y2="14"></line>
    <line x1="4" y1="10" x2="4" y2="3"></line>
    <line x1="12" y1="21" x2="12" y2="12"></line>
    <line x1="12" y1="8" x2="12" y2="3"></line>
    <line x1="20" y1="21" x2="20" y2="16"></line>
    <line x1="20" y1="12" x2="20" y2="3"></line>
    <line x1="1" y1="14" x2="7" y2="14"></line>
    <line x1="9" y1="8" x2="15" y2="8"></line>
    <line x1="17" y1="16" x2="23" y2="16"></line>
  </symbol>

  
</svg>
