<svg xmlns="http://www.w3.org/2000/svg" id="graph_svg" class="" viewBox="0 0 610 576"><rect id="node_0" x="0" y="0" width="32" height="32" rx="4"></rect><rect id="node_1" x="34" y="0" width="32" height="32" rx="4"></rect><rect id="node_2" x="68" y="0" width="32" height="32" rx="4"></rect><rect id="node_3" x="102" y="0" width="32" height="32" rx="4"></rect><rect id="node_4" x="136" y="0" width="32" height="32" rx="4"></rect><rect id="node_5" x="170" y="0" width="32" height="32" rx="4"></rect><rect id="node_6" x="204" y="0" width="32" height="32" rx="4"></rect><rect id="node_7" x="238" y="0" width="32" height="32" rx="4"></rect><rect id="node_8" x="272" y="0" width="32" height="32" rx="4"></rect><rect id="node_9" x="306" y="0" width="32" height="32" rx="4"></rect><rect id="node_10" x="340" y="0" width="32" height="32" rx="4"></rect><rect id="node_11" x="374" y="0" width="32" height="32" rx="4"></rect><rect id="node_12" x="408" y="0" width="32" height="32" rx="4"></rect><rect id="node_13" x="442" y="0" width="32" height="32" rx="4"></rect><rect id="node_14" x="476" y="0" width="32" height="32" rx="4"></rect><rect id="node_15" x="510" y="0" width="32" height="32" rx="4"></rect><rect id="node_16" x="544" y="0" width="32" height="32" rx="4"></rect><rect id="node_17" x="578" y="0" width="32" height="32" rx="4"></rect><rect id="node_18" x="0" y="34" width="32" height="32" rx="4"></rect><rect id="node_19" x="34" y="34" width="32" height="32" rx="4"></rect><rect id="node_20" x="68" y="34" width="32" height="32" rx="4"></rect><rect id="node_21" x="102" y="34" width="32" height="32" rx="4"></rect><rect id="node_22" x="136" y="34" width="32" height="32" rx="4"></rect><rect id="node_23" x="170" y="34" width="32" height="32" rx="4"></rect><rect id="node_24" x="204" y="34" width="32" height="32" rx="4"></rect><rect id="node_25" x="238" y="34" width="32" height="32" rx="4"></rect><rect id="node_26" x="272" y="34" width="32" height="32" rx="4"></rect><rect id="node_27" x="306" y="34" width="32" height="32" rx="4"></rect><rect id="node_28" x="340" y="34" width="32" height="32" rx="4"></rect><rect id="node_29" x="374" y="34" width="32" height="32" rx="4"></rect><rect id="node_30" x="408" y="34" width="32" height="32" rx="4"></rect><rect id="node_31" x="442" y="34" width="32" height="32" rx="4"></rect><rect id="node_32" x="476" y="34" width="32" height="32" rx="4"></rect><rect id="node_33" x="510" y="34" width="32" height="32" rx="4"></rect><rect id="node_34" x="544" y="34" width="32" height="32" rx="4"></rect><rect id="node_35" x="578" y="34" width="32" height="32" rx="4"></rect><rect id="node_36" x="0" y="68" width="32" height="32" rx="4"></rect><rect id="node_37" x="34" y="68" width="32" height="32" rx="4"></rect><rect id="node_38" x="68" y="68" width="32" height="32" rx="4"></rect><rect id="node_39" x="102" y="68" width="32" height="32" rx="4"></rect><rect id="node_40" x="136" y="68" width="32" height="32" rx="4"></rect><rect id="node_41" x="170" y="68" width="32" height="32" rx="4"></rect><rect id="node_42" x="204" y="68" width="32" height="32" rx="4"></rect><rect id="node_43" x="238" y="68" width="32" height="32" rx="4"></rect><rect id="node_44" x="272" y="68" width="32" height="32" rx="4"></rect><rect id="node_45" x="306" y="68" width="32" height="32" rx="4"></rect><rect id="node_46" x="340" y="68" width="32" height="32" rx="4"></rect><rect id="node_47" x="374" y="68" width="32" height="32" rx="4"></rect><rect id="node_48" x="408" y="68" width="32" height="32" rx="4"></rect><rect id="node_49" x="442" y="68" width="32" height="32" rx="4"></rect><rect id="node_50" x="476" y="68" width="32" height="32" rx="4"></rect><rect id="node_51" x="510" y="68" width="32" height="32" rx="4"></rect><rect id="node_52" x="544" y="68" width="32" height="32" rx="4"></rect><rect id="node_53" x="578" y="68" width="32" height="32" rx="4"></rect><rect id="node_54" x="0" y="102" width="32" height="32" rx="4"></rect><rect id="node_55" x="34" y="102" width="32" height="32" rx="4"></rect><rect id="node_56" x="68" y="102" width="32" height="32" rx="4"></rect><rect id="node_57" x="102" y="102" width="32" height="32" rx="4"></rect><rect id="node_58" x="136" y="102" width="32" height="32" rx="4"></rect><rect id="node_59" x="170" y="102" width="32" height="32" rx="4"></rect><rect id="node_60" x="204" y="102" width="32" height="32" rx="4"></rect><rect id="node_61" x="238" y="102" width="32" height="32" rx="4"></rect><rect id="node_62" x="272" y="102" width="32" height="32" rx="4"></rect><rect id="node_63" x="306" y="102" width="32" height="32" rx="4"></rect><rect id="node_64" x="340" y="102" width="32" height="32" rx="4"></rect><rect id="node_65" x="374" y="102" width="32" height="32" rx="4"></rect><rect id="node_66" x="408" y="102" width="32" height="32" rx="4"></rect><rect id="node_67" x="442" y="102" width="32" height="32" rx="4"></rect><rect id="node_68" x="476" y="102" width="32" height="32" rx="4"></rect><rect id="node_69" x="510" y="102" width="32" height="32" rx="4"></rect><rect id="node_70" x="544" y="102" width="32" height="32" rx="4"></rect><rect id="node_71" x="578" y="102" width="32" height="32" rx="4"></rect><rect id="node_72" x="0" y="136" width="32" height="32" rx="4"></rect><rect id="node_73" x="34" y="136" width="32" height="32" rx="4"></rect><rect id="node_74" x="68" y="136" width="32" height="32" rx="4"></rect><rect id="node_75" x="102" y="136" width="32" height="32" rx="4"></rect><rect id="node_76" x="136" y="136" width="32" height="32" rx="4"></rect><rect id="node_77" x="170" y="136" width="32" height="32" rx="4"></rect><rect id="node_78" x="204" y="136" width="32" height="32" rx="4"></rect><rect id="node_79" x="238" y="136" width="32" height="32" rx="4"></rect><rect id="node_80" x="272" y="136" width="32" height="32" rx="4"></rect><rect id="node_81" x="306" y="136" width="32" height="32" rx="4"></rect><rect id="node_82" x="340" y="136" width="32" height="32" rx="4"></rect><rect id="node_83" x="374" y="136" width="32" height="32" rx="4"></rect><rect id="node_84" x="408" y="136" width="32" height="32" rx="4"></rect><rect id="node_85" x="442" y="136" width="32" height="32" rx="4"></rect><rect id="node_86" x="476" y="136" width="32" height="32" rx="4"></rect><rect id="node_87" x="510" y="136" width="32" height="32" rx="4"></rect><rect id="node_88" x="544" y="136" width="32" height="32" rx="4"></rect><rect id="node_89" x="578" y="136" width="32" height="32" rx="4"></rect><rect id="node_90" x="0" y="170" width="32" height="32" rx="4"></rect><rect id="node_91" x="34" y="170" width="32" height="32" rx="4"></rect><rect id="node_92" x="68" y="170" width="32" height="32" rx="4"></rect><rect id="node_93" x="102" y="170" width="32" height="32" rx="4"></rect><rect id="node_94" x="136" y="170" width="32" height="32" rx="4"></rect><rect id="node_95" x="170" y="170" width="32" height="32" rx="4"></rect><rect id="node_96" x="204" y="170" width="32" height="32" rx="4"></rect><rect id="node_97" x="238" y="170" width="32" height="32" rx="4"></rect><rect id="node_98" x="272" y="170" width="32" height="32" rx="4"></rect><rect id="node_99" x="306" y="170" width="32" height="32" rx="4"></rect><rect id="node_100" x="340" y="170" width="32" height="32" rx="4"></rect><rect id="node_101" x="374" y="170" width="32" height="32" rx="4"></rect><rect id="node_102" x="408" y="170" width="32" height="32" rx="4"></rect><rect id="node_103" x="442" y="170" width="32" height="32" rx="4"></rect><rect id="node_104" x="476" y="170" width="32" height="32" rx="4"></rect><rect id="node_105" x="510" y="170" width="32" height="32" rx="4"></rect><rect id="node_106" x="544" y="170" width="32" height="32" rx="4"></rect><rect id="node_107" x="578" y="170" width="32" height="32" rx="4"></rect><rect id="node_108" x="0" y="204" width="32" height="32" rx="4"></rect><rect id="node_109" x="34" y="204" width="32" height="32" rx="4"></rect><rect id="node_110" x="68" y="204" width="32" height="32" rx="4"></rect><rect id="node_111" x="102" y="204" width="32" height="32" rx="4"></rect><rect id="node_112" x="136" y="204" width="32" height="32" rx="4"></rect><rect id="node_113" x="170" y="204" width="32" height="32" rx="4"></rect><rect id="node_114" x="204" y="204" width="32" height="32" rx="4"></rect><rect id="node_115" x="238" y="204" width="32" height="32" rx="4"></rect><rect id="node_116" x="272" y="204" width="32" height="32" rx="4"></rect><rect id="node_117" x="306" y="204" width="32" height="32" rx="4"></rect><rect id="node_118" x="340" y="204" width="32" height="32" rx="4"></rect><rect id="node_119" x="374" y="204" width="32" height="32" rx="4"></rect><rect id="node_120" x="408" y="204" width="32" height="32" rx="4"></rect><rect id="node_121" x="442" y="204" width="32" height="32" rx="4"></rect><rect id="node_122" x="476" y="204" width="32" height="32" rx="4"></rect><rect id="node_123" x="510" y="204" width="32" height="32" rx="4"></rect><rect id="node_124" x="544" y="204" width="32" height="32" rx="4"></rect><rect id="node_125" x="578" y="204" width="32" height="32" rx="4"></rect><rect id="node_126" x="0" y="238" width="32" height="32" rx="4"></rect><rect id="node_127" x="34" y="238" width="32" height="32" rx="4"></rect><rect id="node_128" x="68" y="238" width="32" height="32" rx="4"></rect><rect id="node_129" x="102" y="238" width="32" height="32" rx="4"></rect><rect id="node_130" x="136" y="238" width="32" height="32" rx="4"></rect><rect id="node_131" x="170" y="238" width="32" height="32" rx="4"></rect><rect id="node_132" x="204" y="238" width="32" height="32" rx="4"></rect><rect id="node_133" x="238" y="238" width="32" height="32" rx="4"></rect><rect id="node_134" x="272" y="238" width="32" height="32" rx="4"></rect><rect id="node_135" x="306" y="238" width="32" height="32" rx="4"></rect><rect id="node_136" x="340" y="238" width="32" height="32" rx="4"></rect><rect id="node_137" x="374" y="238" width="32" height="32" rx="4"></rect><rect id="node_138" x="408" y="238" width="32" height="32" rx="4"></rect><rect id="node_139" x="442" y="238" width="32" height="32" rx="4"></rect><rect id="node_140" x="476" y="238" width="32" height="32" rx="4"></rect><rect id="node_141" x="510" y="238" width="32" height="32" rx="4"></rect><rect id="node_142" x="544" y="238" width="32" height="32" rx="4"></rect><rect id="node_143" x="578" y="238" width="32" height="32" rx="4"></rect><rect id="node_144" x="0" y="272" width="32" height="32" rx="4"></rect><rect id="node_145" x="34" y="272" width="32" height="32" rx="4"></rect><rect id="node_146" x="68" y="272" width="32" height="32" rx="4"></rect><rect id="node_147" x="102" y="272" width="32" height="32" rx="4"></rect><rect id="node_148" x="136" y="272" width="32" height="32" rx="4"></rect><rect id="node_149" x="170" y="272" width="32" height="32" rx="4"></rect><rect id="node_150" x="204" y="272" width="32" height="32" rx="4"></rect><rect id="node_151" x="238" y="272" width="32" height="32" rx="4"></rect><rect id="node_152" x="272" y="272" width="32" height="32" rx="4"></rect><rect id="node_153" x="306" y="272" width="32" height="32" rx="4"></rect><rect id="node_154" x="340" y="272" width="32" height="32" rx="4"></rect><rect id="node_155" x="374" y="272" width="32" height="32" rx="4"></rect><rect id="node_156" x="408" y="272" width="32" height="32" rx="4"></rect><rect id="node_157" x="442" y="272" width="32" height="32" rx="4"></rect><rect id="node_158" x="476" y="272" width="32" height="32" rx="4"></rect><rect id="node_159" x="510" y="272" width="32" height="32" rx="4"></rect><rect id="node_160" x="544" y="272" width="32" height="32" rx="4"></rect><rect id="node_161" x="578" y="272" width="32" height="32" rx="4"></rect><rect id="node_162" x="0" y="306" width="32" height="32" rx="4"></rect><rect id="node_163" x="34" y="306" width="32" height="32" rx="4"></rect><rect id="node_164" x="68" y="306" width="32" height="32" rx="4"></rect><rect id="node_165" x="102" y="306" width="32" height="32" rx="4"></rect><rect id="node_166" x="136" y="306" width="32" height="32" rx="4"></rect><rect id="node_167" x="170" y="306" width="32" height="32" rx="4"></rect><rect id="node_168" x="204" y="306" width="32" height="32" rx="4"></rect><rect id="node_169" x="238" y="306" width="32" height="32" rx="4"></rect><rect id="node_170" x="272" y="306" width="32" height="32" rx="4"></rect><rect id="node_171" x="306" y="306" width="32" height="32" rx="4"></rect><rect id="node_172" x="340" y="306" width="32" height="32" rx="4"></rect><rect id="node_173" x="374" y="306" width="32" height="32" rx="4"></rect><rect id="node_174" x="408" y="306" width="32" height="32" rx="4"></rect><rect id="node_175" x="442" y="306" width="32" height="32" rx="4"></rect><rect id="node_176" x="476" y="306" width="32" height="32" rx="4"></rect><rect id="node_177" x="510" y="306" width="32" height="32" rx="4"></rect><rect id="node_178" x="544" y="306" width="32" height="32" rx="4"></rect><rect id="node_179" x="578" y="306" width="32" height="32" rx="4"></rect><rect id="node_180" x="0" y="340" width="32" height="32" rx="4"></rect><rect id="node_181" x="34" y="340" width="32" height="32" rx="4"></rect><rect id="node_182" x="68" y="340" width="32" height="32" rx="4"></rect><rect id="node_183" x="102" y="340" width="32" height="32" rx="4"></rect><rect id="node_184" x="136" y="340" width="32" height="32" rx="4"></rect><rect id="node_185" x="170" y="340" width="32" height="32" rx="4"></rect><rect id="node_186" x="204" y="340" width="32" height="32" rx="4"></rect><rect id="node_187" x="238" y="340" width="32" height="32" rx="4"></rect><rect id="node_188" x="272" y="340" width="32" height="32" rx="4"></rect><rect id="node_189" x="306" y="340" width="32" height="32" rx="4"></rect><rect id="node_190" x="340" y="340" width="32" height="32" rx="4"></rect><rect id="node_191" x="374" y="340" width="32" height="32" rx="4"></rect><rect id="node_192" x="408" y="340" width="32" height="32" rx="4"></rect><rect id="node_193" x="442" y="340" width="32" height="32" rx="4"></rect><rect id="node_194" x="476" y="340" width="32" height="32" rx="4"></rect><rect id="node_195" x="510" y="340" width="32" height="32" rx="4"></rect><rect id="node_196" x="544" y="340" width="32" height="32" rx="4"></rect><rect id="node_197" x="578" y="340" width="32" height="32" rx="4"></rect><rect id="node_198" x="0" y="374" width="32" height="32" rx="4"></rect><rect id="node_199" x="34" y="374" width="32" height="32" rx="4"></rect><rect id="node_200" x="68" y="374" width="32" height="32" rx="4"></rect><rect id="node_201" x="102" y="374" width="32" height="32" rx="4"></rect><rect id="node_202" x="136" y="374" width="32" height="32" rx="4"></rect><rect id="node_203" x="170" y="374" width="32" height="32" rx="4"></rect><rect id="node_204" x="204" y="374" width="32" height="32" rx="4"></rect><rect id="node_205" x="238" y="374" width="32" height="32" rx="4"></rect><rect id="node_206" x="272" y="374" width="32" height="32" rx="4"></rect><rect id="node_207" x="306" y="374" width="32" height="32" rx="4"></rect><rect id="node_208" x="340" y="374" width="32" height="32" rx="4"></rect><rect id="node_209" x="374" y="374" width="32" height="32" rx="4"></rect><rect id="node_210" x="408" y="374" width="32" height="32" rx="4"></rect><rect id="node_211" x="442" y="374" width="32" height="32" rx="4"></rect><rect id="node_212" x="476" y="374" width="32" height="32" rx="4"></rect><rect id="node_213" x="510" y="374" width="32" height="32" rx="4"></rect><rect id="node_214" x="544" y="374" width="32" height="32" rx="4"></rect><rect id="node_215" x="578" y="374" width="32" height="32" rx="4"></rect><rect id="node_216" x="0" y="408" width="32" height="32" rx="4"></rect><rect id="node_217" x="34" y="408" width="32" height="32" rx="4"></rect><rect id="node_218" x="68" y="408" width="32" height="32" rx="4"></rect><rect id="node_219" x="102" y="408" width="32" height="32" rx="4"></rect><rect id="node_220" x="136" y="408" width="32" height="32" rx="4"></rect><rect id="node_221" x="170" y="408" width="32" height="32" rx="4"></rect><rect id="node_222" x="204" y="408" width="32" height="32" rx="4"></rect><rect id="node_223" x="238" y="408" width="32" height="32" rx="4"></rect><rect id="node_224" x="272" y="408" width="32" height="32" rx="4"></rect><rect id="node_225" x="306" y="408" width="32" height="32" rx="4"></rect><rect id="node_226" x="340" y="408" width="32" height="32" rx="4"></rect><rect id="node_227" x="374" y="408" width="32" height="32" rx="4"></rect><rect id="node_228" x="408" y="408" width="32" height="32" rx="4"></rect><rect id="node_229" x="442" y="408" width="32" height="32" rx="4"></rect><rect id="node_230" x="476" y="408" width="32" height="32" rx="4"></rect><rect id="node_231" x="510" y="408" width="32" height="32" rx="4"></rect><rect id="node_232" x="544" y="408" width="32" height="32" rx="4"></rect><rect id="node_233" x="578" y="408" width="32" height="32" rx="4"></rect><rect id="node_234" x="0" y="442" width="32" height="32" rx="4"></rect><rect id="node_235" x="34" y="442" width="32" height="32" rx="4"></rect><rect id="node_236" x="68" y="442" width="32" height="32" rx="4"></rect><rect id="node_237" x="102" y="442" width="32" height="32" rx="4"></rect><rect id="node_238" x="136" y="442" width="32" height="32" rx="4"></rect><rect id="node_239" x="170" y="442" width="32" height="32" rx="4"></rect><rect id="node_240" x="204" y="442" width="32" height="32" rx="4"></rect><rect id="node_241" x="238" y="442" width="32" height="32" rx="4"></rect><rect id="node_242" x="272" y="442" width="32" height="32" rx="4"></rect><rect id="node_243" x="306" y="442" width="32" height="32" rx="4"></rect><rect id="node_244" x="340" y="442" width="32" height="32" rx="4"></rect><rect id="node_245" x="374" y="442" width="32" height="32" rx="4"></rect><rect id="node_246" x="408" y="442" width="32" height="32" rx="4"></rect><rect id="node_247" x="442" y="442" width="32" height="32" rx="4"></rect><rect id="node_248" x="476" y="442" width="32" height="32" rx="4"></rect><rect id="node_249" x="510" y="442" width="32" height="32" rx="4"></rect><rect id="node_250" x="544" y="442" width="32" height="32" rx="4"></rect><rect id="node_251" x="578" y="442" width="32" height="32" rx="4"></rect><rect id="node_252" x="0" y="476" width="32" height="32" rx="4"></rect><rect id="node_253" x="34" y="476" width="32" height="32" rx="4"></rect><rect id="node_254" x="68" y="476" width="32" height="32" rx="4"></rect><rect id="node_255" x="102" y="476" width="32" height="32" rx="4"></rect><rect id="node_256" x="136" y="476" width="32" height="32" rx="4"></rect><rect id="node_257" x="170" y="476" width="32" height="32" rx="4"></rect><rect id="node_258" x="204" y="476" width="32" height="32" rx="4"></rect><rect id="node_259" x="238" y="476" width="32" height="32" rx="4"></rect><rect id="node_260" x="272" y="476" width="32" height="32" rx="4"></rect><rect id="node_261" x="306" y="476" width="32" height="32" rx="4"></rect><rect id="node_262" x="340" y="476" width="32" height="32" rx="4"></rect><rect id="node_263" x="374" y="476" width="32" height="32" rx="4"></rect><rect id="node_264" x="408" y="476" width="32" height="32" rx="4"></rect><rect id="node_265" x="442" y="476" width="32" height="32" rx="4"></rect><rect id="node_266" x="476" y="476" width="32" height="32" rx="4"></rect><rect id="node_267" x="510" y="476" width="32" height="32" rx="4"></rect><rect id="node_268" x="544" y="476" width="32" height="32" rx="4"></rect><rect id="node_269" x="578" y="476" width="32" height="32" rx="4"></rect><rect id="node_270" x="0" y="510" width="32" height="32" rx="4"></rect><rect id="node_271" x="34" y="510" width="32" height="32" rx="4"></rect><rect id="node_272" x="68" y="510" width="32" height="32" rx="4"></rect><rect id="node_273" x="102" y="510" width="32" height="32" rx="4"></rect><rect id="node_274" x="136" y="510" width="32" height="32" rx="4"></rect><rect id="node_275" x="170" y="510" width="32" height="32" rx="4"></rect><rect id="node_276" x="204" y="510" width="32" height="32" rx="4"></rect><rect id="node_277" x="238" y="510" width="32" height="32" rx="4"></rect><rect id="node_278" x="272" y="510" width="32" height="32" rx="4"></rect><rect id="node_279" x="306" y="510" width="32" height="32" rx="4"></rect><rect id="node_280" x="340" y="510" width="32" height="32" rx="4"></rect><rect id="node_281" x="374" y="510" width="32" height="32" rx="4"></rect><rect id="node_282" x="408" y="510" width="32" height="32" rx="4"></rect><rect id="node_283" x="442" y="510" width="32" height="32" rx="4"></rect><rect id="node_284" x="476" y="510" width="32" height="32" rx="4"></rect><rect id="node_285" x="510" y="510" width="32" height="32" rx="4"></rect><rect id="node_286" x="544" y="510" width="32" height="32" rx="4"></rect><rect id="node_287" x="578" y="510" width="32" height="32" rx="4"></rect><rect id="node_288" x="0" y="544" width="32" height="32" rx="4"></rect><rect id="node_289" x="34" y="544" width="32" height="32" rx="4"></rect><rect id="node_290" x="68" y="544" width="32" height="32" rx="4"></rect><rect id="node_291" x="102" y="544" width="32" height="32" rx="4"></rect><rect id="node_292" x="136" y="544" width="32" height="32" rx="4"></rect><rect id="node_293" x="170" y="544" width="32" height="32" rx="4"></rect></svg>